<?xml version="1.0" encoding="UTF-8" standalone="no"?>
<svg
   version="1.0"
   width="136.004pt"
   height="136.00398pt"
   viewBox="0 0 136.004 136.00398"
   preserveAspectRatio="xMidYMid"
   id="svg3"
   sodipodi:docname="CK Icon.svg"
   inkscape:version="1.3 (0e150ed6c4, 2023-07-21)"
   xmlns:inkscape="http://www.inkscape.org/namespaces/inkscape"
   xmlns:sodipodi="http://sodipodi.sourceforge.net/DTD/sodipodi-0.dtd"
   xmlns="http://www.w3.org/2000/svg"
   xmlns:svg="http://www.w3.org/2000/svg">
  <defs
     id="defs3" />
  <sodipodi:namedview
     id="namedview3"
     pagecolor="#ffffff"
     bordercolor="#000000"
     borderopacity="0.25"
     inkscape:showpageshadow="2"
     inkscape:pageopacity="0.0"
     inkscape:pagecheckerboard="0"
     inkscape:deskcolor="#d1d1d1"
     inkscape:document-units="pt"
     showgrid="false"
     inkscape:zoom="2.9026733"
     inkscape:cx="17.397755"
     inkscape:cy="134.53116"
     inkscape:window-width="1920"
     inkscape:window-height="1017"
     inkscape:window-x="-8"
     inkscape:window-y="1072"
     inkscape:window-maximized="1"
     inkscape:current-layer="svg3" />
  <metadata
     id="metadata1">&#10;Created by potrace 1.10, written by Peter Selinger 2001-2011&#10;</metadata>
  <path
     sodipodi:type="star"
     style="fill:#4365c3;fill-opacity:1;stroke-width:0.75"
     id="path4"
     inkscape:flatsided="false"
     sodipodi:sides="6"
     sodipodi:cx="74.414162"
     sodipodi:cy="70.02166"
     sodipodi:r1="66.923065"
     sodipodi:r2="58.223068"
     sodipodi:arg1="1.5785182"
     sodipodi:arg2="2.102117"
     inkscape:rounded="1.6896207e-15"
     inkscape:randomized="0"
     d="M 73.897395,136.94273 44.914141,120.21802 16.200432,103.03466 16.192829,69.572072 16.717198,36.113592 45.69285,19.375713 74.930928,3.1005899 103.91418,19.825301 l 28.71371,17.183357 0.008,33.46259 -0.52436,33.458482 -28.97566,16.73788 z"
     transform="matrix(0.95292859,0,0,1.0163809,-1.2861822,-3.1380882)" />
  <path
     style="fill:#d3bd2b;fill-opacity:1;stroke-width:0.75"
     d="m 69.146161,20.766333 -14.250914,7.399513 -23.66017,7.399512 0.09135,28.501828 8.495737,22.655296 14.159561,19.457988 14.06821,8.22168 3.745431,0.18271 12.24117,-9.1352 L 97.647983,88.36682 107.87941,62.422849 108.61022,37.575102 77.459193,25.151229 Z"
     id="path5" />
  <path
     style="fill:#e2e2e2;fill-opacity:1;stroke-width:0.75"
     d="m 68.204095,30.627815 -15.373759,6.588755 -13.952655,4.521693 2.454634,26.613397 5.16765,13.823468 12.40236,19.378702 20.024643,0.12918 14.211037,-20.541412 5.426038,-14.856997 2.067057,-18.474349 -2.067057,-7.363901 z"
     id="path7" />
  <path
     style="fill:#e43232;fill-opacity:1;stroke-width:0.75"
     d="m 62.842872,32.91615 12.241171,-0.182704 1.096223,2.466505 -2.466503,4.841656 v 14.799026 l 17.174175,-0.456761 9.317912,-3.471375 -1.735697,15.986601 -8.038972,-5.115712 -17.356883,0.456759 0.456758,35.353225 4.384897,4.47626 -5.024362,4.65896 -8.038974,-1.64434 -4.202193,-2.83191 4.476249,-5.66384 0.274056,-34.348355 h -17.26553 l -7.490865,3.928137 -1.82704,-16.35201 8.495737,4.933008 17.996345,-0.456759 -1.187575,-16.35201 -2.923265,-4.476249 z"
     id="path6" />
  <g
     transform="matrix(0.1,0,0,-0.1,-5.3057272,142.90398)"
     fill="#000000"
     stroke="none"
     id="g3">
    <path
       d="M 528,1306 C 415,1240 292,1168 256,1147 l -66,-38 V 751 392 L 302,328 C 364,292 490,220 583,166 l 167,-97 168,97 c 92,54 218,126 280,162 l 112,64 -2,360 -3,360 -204,119 c -113,65 -206,119 -208,119 -1,0 -32,18 -68,40 -36,22 -71,40 -78,39 -6,-1 -105,-56 -219,-123 z m 286,52 c 36,-18 67,-40 69,-49 3,-9 33,-36 68,-59 35,-24 65,-44 67,-45 2,-2 -27,-77 -32,-82 -11,-13 -246,108 -304,155 -28,23 -32,32 -27,55 4,15 14,27 24,27 9,1 27,7 41,15 14,8 26,14 27,15 2,0 32,-15 67,-32 z m 216,-120 c 0,-15 -20,-7 -74,30 -75,51 -70,59 9,14 35,-20 65,-40 65,-44 z m -364,31 c 32,-23 61,-43 63,-45 6,-5 -122,-66 -172,-81 -27,-8 -50,-13 -51,-11 -8,16 -46,99 -46,102 0,3 15,9 33,15 17,6 46,22 62,36 17,13 35,24 41,25 6,0 37,-19 70,-41 z m 414,-62 c 15,-13 65,-43 111,-67 l 84,-44 -74,-13 c -70,-13 -76,-13 -130,9 -31,12 -57,23 -59,24 -5,3 31,114 36,114 2,0 16,-10 32,-23 z m -611,-34 c 26,-53 25,-54 -54,-73 -49,-12 -55,-11 -95,11 -23,13 -36,25 -28,27 31,9 118,55 129,68 18,21 23,18 48,-33 z m 354,-2 c 40,-22 91,-45 115,-52 46,-13 48,-17 29,-43 -13,-18 -16,-18 -68,-1 -30,10 -77,28 -105,40 -39,17 -55,20 -70,12 -10,-6 -56,-25 -102,-43 l -82,-33 -15,30 c -12,23 -13,30 -3,33 91,29 120,41 163,65 28,16 54,29 58,30 4,1 40,-17 80,-38 z m -518,-73 45,-22 v -82 c 0,-44 3,-108 6,-141 l 6,-59 -40,-12 c -34,-10 -47,-10 -76,2 -34,14 -35,16 -26,48 6,18 10,82 10,141 0,94 9,147 25,147 2,0 25,-10 50,-22 z m 204,-24 c 14,-32 13,-33 -32,-44 -27,-6 -42,-3 -62,10 -37,24 -36,31 10,46 60,18 71,16 84,-12 z m 261,11 c 26,24 45,10 25,-18 -11,-15 -15,-47 -15,-109 v -88 h 55 c 52,0 55,-1 55,-25 0,-24 -3,-25 -54,-25 -52,0 -54,-1 -60,-31 -3,-17 -6,-65 -6,-105 0,-77 -6,-86 -33,-56 -12,13 -17,42 -19,102 l -3,85 -51,3 c -46,3 -52,6 -57,27 -4,24 -2,25 42,25 26,0 52,5 58,11 16,16 5,169 -13,190 -21,23 -6,30 28,13 27,-14 31,-14 48,1 z m 278,0 c 29,-9 52,-20 52,-24 0,-5 -13,-14 -29,-21 -23,-9 -38,-9 -65,0 -32,10 -34,13 -24,36 6,13 12,24 13,24 1,0 25,-7 53,-15 z m -358,-66 c 0,-20 3,-57 6,-83 l 7,-46 h -52 c -47,0 -51,2 -51,23 0,13 -11,46 -25,72 -13,27 -22,51 -19,55 3,3 26,12 52,21 60,20 82,9 82,-42 z m 211,40 c 24,-7 46,-14 48,-15 2,-2 -7,-18 -20,-36 -12,-18 -23,-34 -24,-36 -1,-1 -25,7 -53,19 -31,13 -52,28 -52,37 0,21 31,54 46,48 6,-2 32,-10 55,-17 z M 1285,949 V 828 l -69,6 c -39,4 -70,8 -71,9 -1,1 0,50 3,109 l 4,107 32,4 c 17,2 47,5 66,5 l 35,2 z m -879,83 c 18,-15 23,-34 28,-103 4,-46 9,-96 12,-111 5,-26 3,-28 -29,-28 -33,0 -34,1 -41,46 -8,65 -8,214 2,214 4,-1 17,-9 28,-18 z m 725,-77 c -3,-121 -12,-159 -36,-163 -38,-4 -43,8 -32,82 6,46 6,79 -1,102 -9,31 -8,36 16,54 48,35 55,25 53,-75 z m -87,31 c 3,-12 6,-28 6,-37 0,-21 -70,-59 -109,-59 -31,0 -32,1 -25,38 3,20 17,54 30,74 l 24,38 34,-17 c 19,-9 37,-25 40,-37 z m -486,-1 c 31,-64 30,-95 -4,-95 -15,0 -44,10 -65,22 -34,19 -39,26 -39,58 0,37 7,42 81,59 3,0 15,-19 27,-44 z m 315,-22 c 20,-10 27,-21 27,-43 0,-29 -1,-30 -50,-30 h -50 v 51 c 0,48 1,50 23,43 12,-3 34,-13 50,-21 z M 558,870 c 27,0 32,-3 32,-25 0,-20 -5,-25 -25,-25 -13,0 -39,-9 -57,-20 -18,-11 -36,-20 -40,-20 -12,0 -9,35 4,48 9,9 9,15 0,24 -7,7 -12,22 -12,35 v 23 l 33,-20 c 17,-11 47,-20 65,-20 z m 471,-7 c -23,-24 -23,-25 -5,-38 11,-8 16,-21 13,-30 -6,-13 -11,-13 -39,5 -18,11 -47,20 -64,20 -28,0 -31,3 -26,25 3,20 10,25 36,25 17,1 47,9 66,20 42,22 52,9 19,-27 z m 212,-49 44,-6 -2,-82 -1,-81 -84,-77 c -45,-43 -85,-78 -88,-78 -3,1 -20,13 -39,28 l -33,28 25,50 c 20,40 52,133 73,212 4,13 37,15 105,6 z M 609,755 c 14,-54 -1,-91 -48,-124 -34,-24 -32,-26 -64,63 l -25,67 37,19 c 20,10 48,19 62,20 23,0 28,-6 38,-45 z m 91,-25 v -71 l -30,23 c -19,14 -34,37 -41,62 -6,23 -13,44 -16,49 -2,4 16,7 41,7 h 46 z m 194,26 c 7,-41 4,-50 -40,-115 -26,-39 -51,-68 -55,-65 -5,3 -9,54 -9,115 v 109 h 49 49 z m 102,24 c 35,-22 35,-31 2,-107 l -14,-33 -32,33 c -21,22 -35,48 -41,80 l -8,47 h 30 c 16,0 44,-9 63,-20 z M 399,683 c 18,-54 35,-103 37,-109 7,-18 -141,-74 -197,-74 -25,0 -25,1 -19,55 3,30 3,61 -1,68 -13,22 65,130 103,144 18,6 36,12 39,12 3,1 20,-43 38,-96 z m 77,22 c 39,-106 39,-109 10,-123 -22,-10 -27,-9 -35,6 -11,20 -61,173 -61,185 0,4 14,7 31,5 27,-3 32,-9 55,-73 z m 634,72 c 0,-13 -51,-151 -69,-185 l -22,-43 -20,25 -20,25 25,48 c 13,27 29,67 35,91 11,37 15,42 41,42 17,0 30,-1 30,-3 z M 258,762 c 12,-8 3,-26 -37,-74 -4,-4 -6,13 -6,37 0,46 12,56 43,37 z M 700,551 c 0,-79 -2,-90 -24,-110 l -24,-23 -29,44 c -16,24 -41,64 -56,90 l -27,47 29,17 c 15,9 36,30 45,45 l 17,29 35,-26 34,-26 z m 244,106 c 15,-19 26,-37 26,-41 0,-12 -69,-116 -77,-116 -5,0 -22,14 -40,30 l -32,29 42,65 c 23,35 45,65 49,65 4,1 18,-14 32,-32 z M 770,514 c 0,-56 3,-64 28,-83 25,-18 26,-21 10,-37 -15,-15 -18,-15 -39,0 -21,14 -25,14 -40,0 -14,-13 -21,-13 -37,-3 -20,13 -20,13 4,42 21,25 24,38 24,110 v 80 l 25,-23 c 21,-20 25,-32 25,-86 z m 515,85 c -4,-12 -7,-50 -7,-85 l 1,-64 h -39 c -20,0 -54,7 -74,15 l -36,15 77,70 c 42,39 78,70 80,70 3,0 1,-10 -2,-21 z M 598,468 c 31,-46 33,-52 18,-66 -14,-15 -19,-13 -51,18 -34,33 -95,119 -95,133 0,4 12,13 28,21 26,14 28,14 47,-21 11,-19 35,-58 53,-85 z m 374,15 c -49,-73 -65,-86 -92,-78 -27,9 -26,17 15,67 19,24 45,58 57,76 21,33 21,33 41,14 19,-20 19,-20 -21,-79 z m -92,-1 c 0,-1 -10,-16 -22,-32 l -22,-30 -23,22 c -18,17 -23,32 -23,70 v 49 l 45,-38 c 25,-20 45,-39 45,-41 z m -404,21 c 15,-26 45,-66 67,-91 l 41,-43 -24,-45 c -14,-24 -28,-44 -32,-44 -5,0 -8,-4 -8,-10 0,-26 28,-5 53,40 l 28,50 57,-45 c 81,-64 105,-62 193,16 l 68,60 15,-28 c 8,-16 17,-45 21,-66 4,-20 11,-37 17,-37 11,0 0,66 -18,102 -19,37 -19,35 29,105 l 44,62 48,-35 c 27,-19 66,-40 87,-46 26,-8 38,-17 38,-30 0,-10 5,-18 10,-18 6,0 10,7 10,15 0,8 9,15 19,15 11,0 27,3 36,7 15,5 16,3 6,-15 -6,-11 -35,-33 -63,-49 C 1189,357 1074,291 963,227 852,163 756,110 750,110 c -17,0 -491,274 -516,299 -38,37 -21,36 50,-4 85,-48 86,-39 1,11 -36,21 -64,43 -62,49 4,10 128,47 135,40 2,-2 13,-42 24,-89 11,-47 24,-86 29,-86 12,0 12,4 -11,90 -11,41 -20,80 -20,86 0,8 33,30 67,43 0,1 13,-20 29,-46 z M 835,340 c -66,-67 -90,-68 -166,-12 -48,36 -57,47 -48,58 16,19 21,18 77,-16 55,-35 79,-32 121,14 19,21 27,23 44,15 18,-10 16,-14 -28,-59 z"
       id="path1" />
    <path
       d="m 1090,344 c -41,-25 -79,-51 -85,-57 -5,-5 6,-1 25,10 116,69 154,93 145,93 -5,0 -44,-21 -85,-46 z"
       id="path2" />
    <path
       d="m 847,204 -97,-56 -91,52 c -50,28 -93,50 -95,48 -4,-5 172,-108 185,-108 11,0 201,110 201,116 0,6 1,7 -103,-52 z"
       id="path3" />
  </g>
</svg>
